<svg xmlns="http://www.w3.org/2000/svg" xmlns:xlink="http://www.w3.org/1999/xlink" viewBox="0 0 1703.7 233.73"><defs><style>.cls-1{fill:url(#Orange);}.cls-2{fill:url(#Orange-2);}.cls-3{fill:url(#Orange-3);}.cls-4{fill:url(#Orange-4);}.cls-5{fill:url(#Orange-5);}.cls-6{fill:url(#Orange-6);}.cls-7{fill:url(#Orange-7);}.cls-8{fill:url(#Orange-8);}.cls-9{fill:url(#Orange-9);}.cls-10{fill:url(#Orange-10);}.cls-11{fill:url(#Orange-11);}.cls-12{fill:url(#Orange-12);}.cls-13{fill:url(#Orange-13);}.cls-14{fill:#fff;}</style><linearGradient id="Orange" x1="1619.3" y1="164.07" x2="1619.3" gradientUnits="userSpaceOnUse"><stop offset="0" stop-color="#f69453"/><stop offset="0.5" stop-color="#f37521"/><stop offset="1" stop-color="#d4622a"/></linearGradient><linearGradient id="Orange-2" x1="1422.12" y1="164.07" x2="1422.12" y2="6.3" xlink:href="#Orange"/><linearGradient id="Orange-3" x1="1396.59" y1="73.96" x2="1396.59" y2="73.96" xlink:href="#Orange"/><linearGradient id="Orange-4" x1="1397.18" y1="48.49" x2="1397.18" y2="48.49" xlink:href="#Orange"/><linearGradient id="Orange-5" x1="846.6" y1="161.82" x2="846.6" y2="4.05" xlink:href="#Orange"/><linearGradient id="Orange-6" x1="821.07" y1="71.71" x2="821.07" y2="71.71" xlink:href="#Orange"/><linearGradient id="Orange-7" x1="821.66" y1="46.24" x2="821.66" y2="46.24" xlink:href="#Orange"/><linearGradient id="Orange-8" x1="87.89" y1="161.16" x2="87.89" y2="2.91" xlink:href="#Orange"/><linearGradient id="Orange-9" x1="288.71" y1="161.16" x2="288.71" y2="3.81" xlink:href="#Orange"/><linearGradient id="Orange-10" x1="487.38" y1="162.06" x2="487.38" y2="3.81" xlink:href="#Orange"/><linearGradient id="Orange-11" x1="671.45" y1="161.16" x2="671.45" y2="3.81" xlink:href="#Orange"/><linearGradient id="Orange-12" x1="1028.5" y1="161.16" x2="1028.5" y2="3.81" xlink:href="#Orange"/><linearGradient id="Orange-13" x1="1221.45" y1="161.16" x2="1221.45" y2="2.91" xlink:href="#Orange"/></defs><title>Asset 1</title><g id="Layer_2" data-name="Layer 2"><g id="Layer_1-2" data-name="Layer 1"><path class="cls-1" d="M1679.81,24.11Q1655.69,0,1619.41,0q-36.51,0-60.63,24.11Q1534.89,48,1534.89,82T1558.78,140q24.11,24.12,60.63,24.11t60.4-23.89Q1703.7,116.3,1703.7,82,1703.7,48,1679.81,24.11Zm-60.4,20.06q15.32,0,25,10.82a35.49,35.49,0,0,1,4.94,6.76h-59.92a35.46,35.46,0,0,1,4.94-6.76Q1604.08,44.17,1619.41,44.17Zm0,75.73q-15.1,0-25-10.59a37.6,37.6,0,0,1-6.54-10.19H1651a37.62,37.62,0,0,1-6.54,10.19Q1634.51,119.9,1619.41,119.9Z"/><path class="cls-2" d="M1455.41,107l-3.55-4.66a52.63,52.63,0,0,0,21.2-18.6A48.08,48.08,0,0,0,1480.72,57q0-22.09-16.22-36.28-16-14.42-43.05-14.44h-76.18V33.49l10,13.39,18.91,25.45h-28.87v91.74h48.46V107.73h6.73l9.73,13.08h0l32.2,43.28H1499Zm-39.6-60.08c4.51,0,8.15,1.11,10.94,3.36a11.29,11.29,0,0,1,4.17,9.24,11.58,11.58,0,0,1-4.17,9.35,8.07,8.07,0,0,1-.73.55l-17.62-22.5Z"/><line class="cls-3" x1="1399.46" y1="73.96" x2="1393.72" y2="73.96"/><line class="cls-4" x1="1400.63" y1="48.49" x2="1393.72" y2="48.49"/><path class="cls-5" d="M879.9,104.71l-3.55-4.66a52.63,52.63,0,0,0,21.2-18.6,48.08,48.08,0,0,0,7.66-26.69q0-22.09-16.22-36.28Q873,4.07,845.93,4.05H769.75V31.24l10,13.39,18.91,25.45H769.75v91.74h48.46V105.48h6.73l9.73,13.08h0l32.2,43.28h56.56Zm-39.6-60.08c4.51,0,8.15,1.11,10.94,3.36a11.29,11.29,0,0,1,4.17,9.24,11.58,11.58,0,0,1-4.17,9.35,8.07,8.07,0,0,1-.73.55l-17.62-22.5Z"/><line class="cls-6" x1="823.94" y1="71.71" x2="818.21" y2="71.71"/><line class="cls-7" x1="825.12" y1="46.24" x2="818.21" y2="46.24"/><path class="cls-8" d="M49.9,161.16H0L64.74,2.91h46.08l65,158.25H123.86l-11.24-29.45H61.37ZM87,58.21,75.31,95.52H98.46Z"/><path class="cls-9" d="M236.22,139.13q-24.5-21.8-24.5-56.65t24.5-56.65q24.73-22,63.17-22H365.7V161.16H299.38Q260.94,161.16,236.22,139.13ZM302.53,45.4q-19.78,0-30.35,9.55T261.62,82.49q0,18,10.57,27.54t30.35,9.55h14.84V45.4Z"/><path class="cls-10" d="M510.2,162.06H464.34L401.62,3.81h53.73l32.82,93.74,33-93.74h51.93Z"/><path class="cls-11" d="M733.83,161.16H609.07V3.81H732.48V45.4H657.4V59.33h58.89V97.55H657.4v22h76.43Z"/><path class="cls-12" d="M959.38,45.4V3.81h138.25V45.4h-45.18V161.16h-48.33V45.4Z"/><path class="cls-13" d="M1183.46,161.16h-49.91L1198.29,2.91h46.08l65,158.25h-51.93l-11.24-29.45h-51.25Zm37.09-103-11.69,37.32H1232Z"/><path class="cls-14" d="M15.19,195.09H.25V188H38.51v7.08H23.57v38H15.19Z"/><path class="cls-14" d="M87.2,233.09,78,219.89a15.64,15.64,0,0,1-1.74.06H66.07v13.14H57.7V188H76.25c11.85,0,19.19,6.05,19.19,16,0,6.83-3.48,11.85-9.6,14.24l10.37,14.82Zm-11.34-38H66.07v18h9.79c7.34,0,11.14-3.35,11.14-9S83.21,195.09,75.86,195.09Z"/><path class="cls-14" d="M146.91,222.66H124.36l-4.44,10.43h-8.63L131.57,188h8.24l20.35,45.09h-8.76Zm-2.77-6.57-8.5-19.71-8.44,19.71Z"/><path class="cls-14" d="M218.85,188v45.09H212l-24.86-30.53v30.53h-8.31V188h6.89l24.86,30.53V188Z"/><path class="cls-14" d="M240,228.32l2.9-6.51a25,25,0,0,0,14.88,5c7,0,10-2.51,10-5.86,0-9.73-26.8-3.35-26.8-20.1,0-7.28,5.8-13.46,18.16-13.46,5.41,0,11.08,1.42,15,4l-2.64,6.51a25.05,25.05,0,0,0-12.43-3.54c-7,0-9.79,2.71-9.79,6.12,0,9.6,26.73,3.35,26.73,19.9,0,7.21-5.86,13.4-18.23,13.4C250.79,233.73,243.77,231.54,240,228.32Z"/><path class="cls-14" d="M305.6,195v13.72h21.77v7.09H305.6v17.26h-8.37V188h32.91v7Z"/><path class="cls-14" d="M347.39,210.55c0-13.33,10.31-23.19,24.28-23.19S396,197.15,396,210.55s-10.31,23.19-24.28,23.19S347.39,223.88,347.39,210.55Zm40.13,0a15.85,15.85,0,1,0-15.85,15.85A15.37,15.37,0,0,0,387.52,210.55Z"/><path class="cls-14" d="M447.23,233.09,438,219.89a15.64,15.64,0,0,1-1.74.06H426.1v13.14h-8.37V188h18.55c11.85,0,19.19,6.05,19.19,16,0,6.83-3.48,11.85-9.6,14.24l10.37,14.82Zm-11.34-38H426.1v18h9.79c7.34,0,11.14-3.35,11.14-9S443.23,195.09,435.89,195.09Z"/><path class="cls-14" d="M519.1,233.09,519,203.2l-14.82,24.73h-3.74l-14.82-24.35v29.5h-8V188h6.89l17.91,29.89L520.07,188H527l.06,45.09Z"/><path class="cls-14" d="M602.18,217.18v15.91h-8.37V217.31L576.09,188h9l13.2,22,13.33-22h8.24Z"/><path class="cls-14" d="M633,210.55c0-13.33,10.31-23.19,24.28-23.19s24.28,9.79,24.28,23.19-10.31,23.19-24.28,23.19S633,223.88,633,210.55Zm40.13,0a15.85,15.85,0,1,0-15.85,15.85A15.37,15.37,0,0,0,673.16,210.55Z"/><path class="cls-14" d="M703,213.44V188h8.37v25.12c0,9.28,4.19,13.27,11.47,13.27s11.4-4,11.4-13.27V188h8.24v25.44c0,13.14-7.41,20.29-19.71,20.29S703,226.58,703,213.44Z"/><path class="cls-14" d="M796.56,233.09l-9.21-13.2a15.64,15.64,0,0,1-1.74.06H775.43v13.14h-8.37V188h18.55c11.85,0,19.19,6.05,19.19,16,0,6.83-3.48,11.85-9.6,14.24l10.37,14.82Zm-11.34-38h-9.79v18h9.79c7.34,0,11.14-3.35,11.14-9S792.56,195.09,785.22,195.09Z"/><path class="cls-14" d="M857.67,188h19.71C892,188,902,197,902,210.55s-10,22.54-24.61,22.54H857.67ZM877,226c10,0,16.55-6.12,16.55-15.46S887,195.09,877,195.09H866V226Z"/><path class="cls-14" d="M923.75,188h8.37v45.09h-8.37Z"/><path class="cls-14" d="M988,210h7.92v18c-4.7,3.8-11.27,5.73-17.65,5.73-14,0-24.28-9.73-24.28-23.19s10.31-23.19,24.41-23.19c7.54,0,13.85,2.51,18.1,7.34l-5.28,5.15a16.73,16.73,0,0,0-12.43-5.15c-9.6,0-16.36,6.51-16.36,15.85,0,9.15,6.76,15.85,16.3,15.85a18.22,18.22,0,0,0,9.28-2.32Z"/><path class="cls-14" d="M1019.78,188h8.37v45.09h-8.37Z"/><path class="cls-14" d="M1062.35,195.09h-14.94V188h38.26v7.08h-14.94v38h-8.37Z"/><path class="cls-14" d="M1131.85,222.66H1109.3l-4.44,10.43h-8.63L1116.52,188h8.24l20.35,45.09h-8.76Zm-2.77-6.57-8.5-19.71-8.44,19.71Z"/><path class="cls-14" d="M1163.72,188h8.37v38h23.57v7.09h-31.95Z"/><path class="cls-14" d="M1242.62,210.55c0-13.33,10.31-23.19,24.28-23.19s24.28,9.79,24.28,23.19-10.31,23.19-24.28,23.19S1242.62,223.88,1242.62,210.55Zm40.13,0a15.85,15.85,0,1,0-15.85,15.85A15.37,15.37,0,0,0,1282.75,210.55Z"/><path class="cls-14" d="M1312.56,213.44V188h8.37v25.12c0,9.28,4.19,13.27,11.47,13.27s11.4-4,11.4-13.27V188H1352v25.44c0,13.14-7.41,20.29-19.71,20.29S1312.56,226.58,1312.56,213.44Z"/><path class="cls-14" d="M1385,195.09H1370V188h38.26v7.08h-14.94v38H1385Z"/><path class="cls-14" d="M1457,233.09l-9.21-13.2a15.62,15.62,0,0,1-1.74.06h-10.18v13.14h-8.37V188H1446c11.85,0,19.19,6.05,19.19,16,0,6.83-3.48,11.85-9.6,14.24L1466,233.09Zm-11.34-38h-9.79v18h9.79c7.34,0,11.14-3.35,11.14-9S1453,195.09,1445.63,195.09Z"/><path class="cls-14" d="M1521.24,226.07v7h-33.82V188h32.92v7H1495.8v11.72h21.77v6.89H1495.8v12.43Z"/><path class="cls-14" d="M1572.7,222.66h-22.54l-4.44,10.43h-8.63L1557.37,188h8.24L1586,233.09h-8.76Zm-2.77-6.57-8.5-19.71L1553,216.09Z"/><path class="cls-14" d="M1600.71,210.55c0-13.46,10.31-23.19,24.15-23.19,7.34,0,13.66,2.64,17.84,7.54L1637.3,200a15.83,15.83,0,0,0-12-5.28c-9.34,0-16.1,6.57-16.1,15.85s6.76,15.85,16.1,15.85a15.67,15.67,0,0,0,12-5.35l5.41,5.15c-4.19,4.9-10.5,7.54-17.91,7.54C1611,233.73,1600.71,224,1600.71,210.55Z"/><path class="cls-14" d="M1703.7,188v45.09h-8.37V213.77H1672v19.32h-8.37V188H1672v18.61h23.32V188Z"/></g></g></svg>