<svg xmlns="http://www.w3.org/2000/svg" viewBox="0 0 1814.83 1044.8"><defs><style>.cls-1{isolation:isolate;}.cls-2,.cls-4{fill:#fcbe99;}.cls-2{opacity:0.6;}.cls-10,.cls-11,.cls-13,.cls-17,.cls-2,.cls-21,.cls-22,.cls-23,.cls-27,.cls-29,.cls-30,.cls-4,.cls-8{mix-blend-mode:multiply;}.cls-28,.cls-3{fill:#f75c00;}.cls-4{opacity:0.25;}.cls-15,.cls-5{fill:#fff;}.cls-14,.cls-5{opacity:0.61;}.cls-6{fill:#e84700;}.cls-7,.cls-8{fill:#606060;}.cls-7{opacity:0.32;}.cls-17,.cls-22,.cls-8{opacity:0.3;}.cls-10,.cls-13,.cls-9{fill:#313f5e;}.cls-10,.cls-11{opacity:0.43;}.cls-12,.cls-18,.cls-20,.cls-24{fill:none;stroke-miterlimit:10;}.cls-12{stroke:#5a657e;stroke-width:2.63px;}.cls-12,.cls-18,.cls-20{stroke-linecap:round;}.cls-13{opacity:0.21;}.cls-16,.cls-17{fill:#44291c;}.cls-18{stroke:#44291c;}.cls-18,.cls-20{stroke-width:7.58px;}.cls-19,.cls-21,.cls-22,.cls-23{fill:#5b3725;}.cls-20,.cls-24{stroke:#5b3725;}.cls-23{opacity:0.29;}.cls-24{stroke-width:5.91px;}.cls-25,.cls-27,.cls-30{fill:#ffb539;}.cls-26{fill:#f7671e;}.cls-27,.cls-29{opacity:0.51;}.cls-28{opacity:0.45;mix-blend-mode:screen;}.cls-30{opacity:0.42;}</style></defs><title>Asset 2</title><g class="cls-1"><g id="Layer_2" data-name="Layer 2"><g id="Layer_1-2" data-name="Layer 1"><path class="cls-2" d="M1737.42,1044.8H24.33c-22.43,0-32.87-34.81-16-53.27l21.38-23.37C52,943.8,80.61,930.38,110.2,930.38H1681.35c22.39,0,43.9,10.87,60,30.33l16.69,20.16C1777.28,1004.1,1764.14,1044.8,1737.42,1044.8Z"/><path class="cls-3" d="M962,167a23.17,23.17,0,0,0,23.17-23.17V3.54H938.88V143.79A23.17,23.17,0,0,0,962,167Z"/><path class="cls-3" d="M795.59,237.89a39,39,0,0,0,39-39V0h-78V198.87A39,39,0,0,0,795.59,237.89Z"/><path class="cls-3" d="M889.86,85.25a11.59,11.59,0,0,0,11.59-11.59V3.54H878.28V73.66A11.59,11.59,0,0,0,889.86,85.25Z"/><path class="cls-3" d="M1133.12,209.43A23.17,23.17,0,0,0,1110,232.6V432.34a23.17,23.17,0,1,0,46.34,0V232.6A23.17,23.17,0,0,0,1133.12,209.43Z"/><path class="cls-3" d="M1005.08,289.86a11.59,11.59,0,0,0,11.59-11.59V178.4a11.59,11.59,0,1,0-23.17,0v99.87A11.59,11.59,0,0,0,1005.08,289.86Z"/><path class="cls-3" d="M1017.25,129.91a31.28,31.28,0,0,1,31.42,31.18l.19,60.88c0,12.69,9.83,23.73,22.52,24.1a23.21,23.21,0,0,0,23.9-23.2V146.67A30.72,30.72,0,0,1,1126,115.95h30.54a30.72,30.72,0,0,1,30.72,30.72h.71V555.78a12.55,12.55,0,0,0,12.55,12.55h4.73a12.55,12.55,0,0,1,12.55,12.55v38.84a46.34,46.34,0,0,0,46.34,46.34h0a46.34,46.34,0,0,0,46.34-46.34V613A33.51,33.51,0,0,1,1344,579.5h18.62A33.51,33.51,0,0,1,1396.11,613v33a20,20,0,0,0,20,20h51.56c11.09,0,19.32-9.2,19.54-20.29a12.55,12.55,0,0,1,12.55-12.29h0A12.55,12.55,0,0,1,1512.34,646v75.72a12.55,12.55,0,0,0,12.55,12.55h.11a12.55,12.55,0,0,0,12.55-12.55v-51c0-6.56,4.79-12.41,11.32-13a12.55,12.55,0,0,1,13.78,12.49v16.3h.11v62.29A25.21,25.21,0,0,0,1588,774h0a25.21,25.21,0,0,0,25.21-25.21v-11a12.55,12.55,0,0,1,12.55-12.55H1651a12.55,12.55,0,0,1,12.55,12.55v11A25.21,25.21,0,0,0,1688.79,774h0A25.21,25.21,0,0,0,1714,748.83v-18c0-13.43,10.13-25.15,23.53-26A25.21,25.21,0,0,1,1764.41,730v62.65c0,13.43,10.13,25.15,23.53,26a25.21,25.21,0,0,0,26.89-25.15V0H1002.59V114.77C1002.59,122.95,1009.08,129.95,1017.25,129.91Z"/><path class="cls-4" d="M1499.08,339.53h0a94.14,94.14,0,0,0-68,28.88,12.33,12.33,0,0,1-21.21-8.57h0a118.66,118.66,0,0,0-118.66-118.66h0a118.66,118.66,0,0,0-118.66,118.66V505.51a71.15,71.15,0,0,0-73.75-71.11,68.94,68.94,0,0,0-37.25,12.52c-10.38,7.27-24.62.29-24.62-12.39V434a94.47,94.47,0,0,0-94.47-94.47h0a94.14,94.14,0,0,0-68,28.88,12.33,12.33,0,0,1-21.21-8.57h0A118.66,118.66,0,0,0,734.64,241.17h0A118.66,118.66,0,0,0,616,359.84V505.51a71.15,71.15,0,0,0-73.75-71.11c-38.56,1.37-68.56,34.23-68.56,72.81v361a64.59,64.59,0,0,0,64.59,64.59h968.38a86.91,86.91,0,0,0,86.91-86.91V434A94.47,94.47,0,0,0,1499.08,339.53Z"/><path class="cls-5" d="M1773.77,808.42h0c-2.44,0-4.43-4-4.43-8.85l3.23-70.87,5.62,70.87C1778.2,804.45,1776.22,808.42,1773.77,808.42Z"/><path class="cls-5" d="M1117.49,441.2h0c-2.44,0-4.43-4-4.43-8.85l3.23-70.87,5.62,70.87C1121.91,437.23,1119.93,441.2,1117.49,441.2Z"/><path class="cls-5" d="M1575.59,758.66h0c-2.44,0-4.43-4-4.43-8.85l3.23-70.87,5.62,70.87C1580,754.7,1578,758.66,1575.59,758.66Z"/><path class="cls-5" d="M1194.12,556.53h0c-2,0-3.69-3.3-3.69-7.37l2.69-59,4.68,59C1197.81,553.23,1196.16,556.53,1194.12,556.53Z"/><path class="cls-5" d="M1062.5,231.33h0c-2.44,0-4.43-4-4.43-8.85l3.23-70.87,5.62,70.87C1066.93,227.37,1064.95,231.33,1062.5,231.33Z"/><path class="cls-6" d="M1506.34,964.21c-5.84-.84-12.19-.4-18.09-.4h-57q-57,0-114,0c.31-.74,1-15.91-1.95-14.22a8.68,8.68,0,0,0,4.35-8.72,9,9,0,0,0-9-7.55H1093.54a10.37,10.37,0,0,0-8.85,4.75,7.34,7.34,0,0,0-.79,6.53c-22.32,0-44.61-1.33-66.92-1.72-18-.32-41.46-3.06-58.55,3.54-13.91,5.37-12.82,25.53,3.43,25.53H1145a11.32,11.32,0,0,1,11.18,11.65s0,.09,0,.13v18.3A19.94,19.94,0,0,0,1176.1,1022h300.06c12.29,0,31.3,3.49,41.39-3.51C1536,1005.72,1528.74,967.45,1506.34,964.21Z"/><path class="cls-5" d="M1174.41,1007.23h0c0-2.44,4-4.42,8.86-4.42l70.87,3.28-70.88,5.57C1178.37,1011.66,1174.41,1009.67,1174.41,1007.23Z"/><path class="cls-5" d="M1091.17,943.87h0c0-2.44,4-4.42,8.86-4.42l70.87,3.28L1100,948.3C1095.14,948.3,1091.17,946.31,1091.17,943.87Z"/><path class="cls-7" d="M1308.25,958.69l38.07-27.87a11.55,11.55,0,0,0,4.72-9.32h0A11.55,11.55,0,0,0,1339.46,910l-51.81.19Z"/><path class="cls-8" d="M1279.82,490V613.18h4.93l-4.62,221.75a12.32,12.32,0,0,1-12.23,12h-86.35a28.25,28.25,0,0,0-28.25,28.25v42.4h16v-42.4a12.24,12.24,0,0,1,12.24-12.24h86.35a28.4,28.4,0,0,0,28.24-27.66l4.65-222.84a11.52,11.52,0,0,0,7.51-10.78V505.47A15.48,15.48,0,0,0,1292.81,490Z"/><polygon class="cls-2" points="1063.33 982.58 762.88 980.68 795.56 947.67 1028.67 947.67 1063.33 982.58"/><path class="cls-9" d="M793.12,333.36l2.57,182.73c0,3.71,32.49,11.48,72.56,11.48s72.56-7.77,72.56-11.48l2.57-182.73Z"/><path class="cls-9" d="M943.27,343H792.8a4.81,4.81,0,0,1-4.81-4.81h0a4.81,4.81,0,0,1,4.81-4.81H943.27a4.81,4.81,0,0,1,4.81,4.81h0A4.81,4.81,0,0,1,943.27,343Z"/><path class="cls-10" d="M845.64,486.66c-18.42,7.61-36.46,5.73-49.95,1.46v28c0,3.71,32.49,11.48,72.56,11.48s72.56-7.77,72.56-11.48l1.8-161.25C932.45,403.62,905.75,461.81,845.64,486.66Z"/><path class="cls-3" d="M849.15,332.44v.13H811.32a6.56,6.56,0,0,0-6.56,6.56v15.37a4.45,4.45,0,0,0,3.57,4.46,4.3,4.3,0,0,0,5-4.23v-3.18a13.92,13.92,0,0,1,15.51-13.84l.91.12c11.23,1.6,19.39,11.55,19.39,22.9v18.46c0,4.91,3.68,9.31,8.58,9.57a9.07,9.07,0,0,0,9.56-9.06V351.1a5,5,0,0,1,3.37-4.77,6.78,6.78,0,0,1,5.81.85,4.79,4.79,0,0,1,2,4v42.88A6.13,6.13,0,0,0,883,400h0a8.31,8.31,0,0,1,6.21,8v21.09a10.9,10.9,0,0,0,9.57,11,10.61,10.61,0,0,0,11.65-10.56v-84a4.71,4.71,0,0,1,4.7-4.71h0a6.82,6.82,0,0,1,1.08.09,4.89,4.89,0,0,1,4,4.91v31.26c0,4.91,3.68,9.31,8.58,9.57a9.07,9.07,0,0,0,9.56-9.06V340.39a8,8,0,0,0-8-8Z"/><path class="cls-5" d="M894.66,434.57h0a3.37,3.37,0,0,1-3.37-3.37l2-42.58L898,431.21A3.37,3.37,0,0,1,894.66,434.57Z"/><path class="cls-5" d="M923.73,380.63h0a1.68,1.68,0,0,1-1.68-1.68l1-21.29,2.36,21.29A1.68,1.68,0,0,1,923.73,380.63Z"/><path class="cls-5" d="M881.43,397.87h0a1.86,1.86,0,0,1-1.86-1.86l1.11-23.56L883.3,396A1.86,1.86,0,0,1,881.43,397.87Z"/><path class="cls-5" d="M852.71,383.06h0a1.86,1.86,0,0,1-1.86-1.86L852,357.63l2.61,23.56A1.86,1.86,0,0,1,852.71,383.06Z"/><path class="cls-5" d="M806.26,355.69h0a.93.93,0,0,1-.93-.93l.56-11.78,1.31,11.78A.93.93,0,0,1,806.26,355.69Z"/><g class="cls-11"><path class="cls-9" d="M940.82,453a83.94,83.94,0,0,1-12.23,18.48c-12.38,14-28.92,21.44-49.16,22.25-29.81,1.22-53.33-7.11-70-24.68a86.71,86.71,0,0,1-13.76-19.53v13.76A88.26,88.26,0,0,0,804.25,474c17,18,40.39,27,69.6,27q2.9,0,5.87-.12c22.25-.89,40.49-9.19,54.22-24.65a83,83,0,0,0,6.89-9Z"/><path class="cls-9" d="M937.59,368.51a3.56,3.56,0,0,0,3.23,3.54V365A3.56,3.56,0,0,0,937.59,368.51Z"/><path class="cls-9" d="M795.69,371.35a3.54,3.54,0,0,0,0-5.68Z"/></g><path class="cls-12" d="M791,361.85H777.46S764.7,495.28,879.57,490.67c89.21-3.58,79.28-128.83,79.28-128.83H946.38"/><polygon class="cls-13" points="943.19 344.84 943.26 342.44 793.25 342.44 793.32 344.84 943.19 344.84"/><g class="cls-14"><path class="cls-15" d="M810.52,334.89l35.57,0-35.56,1a.47.47,0,1,1,0-.95Z"/></g><path class="cls-3" d="M804.76,339.12V343H816.3a13.83,13.83,0,0,1,12.55-5.27l.91.12A22,22,0,0,1,841.05,343h70.2a4.71,4.71,0,0,1,3.9-2.09,6.82,6.82,0,0,1,1.08.09,4.57,4.57,0,0,1,3,2h19v-2.59a7.93,7.93,0,0,0-4.3-7H808.26A6.53,6.53,0,0,0,804.76,339.12Z"/><rect class="cls-16" x="769" y="676.57" width="286.56" height="18.82" rx="3.36" ry="3.36"/><path class="cls-17" d="M1046.72,689H777.83a8.86,8.86,0,0,1-8.27-6.2A9.87,9.87,0,0,0,769,686c0,5.2,4,9.41,8.84,9.41h268.89c4.88,0,8.84-4.21,8.84-9.41a9.86,9.86,0,0,0-.56-3.21A8.86,8.86,0,0,1,1046.72,689Z"/><rect class="cls-16" x="769.29" y="832.39" width="280.85" height="18.82" rx="3.33" ry="3.33"/><path class="cls-17" d="M1041.47,844.78H777.95a8.71,8.71,0,0,1-8.11-6.2,10,10,0,0,0-.55,3.21c0,5.2,3.88,9.41,8.66,9.41h263.53c4.78,0,8.66-4.21,8.66-9.41a10,10,0,0,0-.55-3.21A8.71,8.71,0,0,1,1041.47,844.78Z"/><line class="cls-18" x1="982.21" y1="537" x2="1028.67" y2="947.67"/><line class="cls-18" x1="795.56" y1="947.67" x2="842.03" y2="537"/><rect class="cls-19" x="759.88" y="518.19" width="305.09" height="37.63" rx="5.02" ry="5.02"/><line class="cls-20" x1="1059.83" y1="973.36" x2="1013.36" y2="537"/><line class="cls-20" x1="763.51" y1="973.36" x2="809.98" y2="537"/><path class="cls-21" d="M1065,882.48a5.83,5.83,0,0,0-5.1-5.78l1.2,11.27A5.84,5.84,0,0,0,1065,882.48Z"/><path class="cls-19" d="M1039.2,876.63h19.91a5.79,5.79,0,0,1,.76.08L1042.54,714h-20.66Z"/><polygon class="cls-19" points="1020.63 702.26 1041.29 702.26 1027.7 574.64 1007.04 574.64 1020.63 702.26"/><path class="cls-19" d="M1070,972.27l-9-84.3a5.8,5.8,0,0,1-2,.36h-18.67l9.17,86.11a10.27,10.27,0,1,0,20.43-2.18Z"/><polygon class="cls-21" points="1027.7 574.64 1025.7 555.82 1005.03 555.82 1007.04 574.64 1027.7 574.64"/><polygon class="cls-21" points="996.73 574.64 994.73 555.82 974.07 555.82 976.07 574.64 996.73 574.64"/><polygon class="cls-21" points="1021.88 713.97 1042.54 713.97 1041.29 702.26 1020.63 702.26 1021.88 713.97"/><path class="cls-21" d="M1061.07,888l-1.2-11.27a5.79,5.79,0,0,0-.76-.08H1039.2l1.25,11.71h18.67A5.8,5.8,0,0,0,1061.07,888Z"/><path class="cls-19" d="M820.19,538.09a10.27,10.27,0,0,0-20.43-2.18l-2.12,19.9H818.3Z"/><path class="cls-19" d="M784.14,876.63,801.46,714H780.8L763.43,877.1a5.83,5.83,0,0,1,2.3-.47Z"/><polygon class="cls-19" points="816.3 574.64 795.64 574.64 782.05 702.26 802.71 702.26 816.3 574.64"/><path class="cls-19" d="M762.35,887.24l-9.05,85a10.27,10.27,0,0,0,9.13,11.3,10.16,10.16,0,0,0,1.1.06,10.27,10.27,0,0,0,10.2-9.18l9.17-86.11H765.73A5.81,5.81,0,0,1,762.35,887.24Z"/><polygon class="cls-21" points="818.3 555.82 797.64 555.82 795.64 574.64 816.3 574.64 818.3 555.82"/><polygon class="cls-21" points="850.17 555.82 829.51 555.82 827.5 574.64 848.17 574.64 850.17 555.82"/><polygon class="cls-21" points="802.71 702.26 782.05 702.26 780.8 713.97 801.46 713.97 802.71 702.26"/><path class="cls-21" d="M765.73,876.63a5.83,5.83,0,0,0-2.3.47l-1.08,10.14a5.81,5.81,0,0,0,3.38,1.09h17.16l1.25-11.71Z"/><path class="cls-19" d="M1055.56,705.65H769.29a9.41,9.41,0,0,1-9.41-9.41h0a9.41,9.41,0,0,1,9.41-9.41h286.27a9.41,9.41,0,0,1,9.41,9.41h0A9.41,9.41,0,0,1,1055.56,705.65Z"/><path class="cls-22" d="M1055.56,699.23H769.29a9.38,9.38,0,0,1-8.81-6.2,9.33,9.33,0,0,0,8.81,12.62h286.27a9.33,9.33,0,0,0,8.81-12.62A9.38,9.38,0,0,1,1055.56,699.23Z"/><path class="cls-23" d="M1051.36,545.55H773.49a13.61,13.61,0,0,1-13.61-13.61v10.27a13.61,13.61,0,0,0,13.61,13.61h277.87A13.61,13.61,0,0,0,1065,542.21V531.94A13.61,13.61,0,0,1,1051.36,545.55Z"/><path class="cls-19" d="M1055.56,879.91H769.29a9.41,9.41,0,0,1-9.41-9.41h0a9.41,9.41,0,0,1,9.41-9.41h286.27a9.41,9.41,0,0,1,9.41,9.41h0A9.41,9.41,0,0,1,1055.56,879.91Z"/><path class="cls-22" d="M1064.3,867.08a9.39,9.39,0,0,1-8.74,6H769.29a9.39,9.39,0,0,1-8.74-6,9.36,9.36,0,0,0,8.74,12.83h286.27a9.36,9.36,0,0,0,8.74-12.83Z"/><path class="cls-3" d="M971.51,516h-63a4,4,0,0,0-3.95,3.95,3.87,3.87,0,0,0,.26,1.27,1.84,1.84,0,0,0-.26.9v4.44a1.29,1.29,0,0,0,1,1.29c1.76.29,1.36-1.84,1.45-2.85a1.28,1.28,0,0,1,.67-1.11,1.68,1.68,0,0,1,.71-.07,48.68,48.68,0,0,0,5.9,0c1.24-.09,1.67.29,2.24,1.34a6.79,6.79,0,0,1,.82,3.23v5.34a2.72,2.72,0,0,0,2.48,2.77,2.62,2.62,0,0,0,2.76-2.62v-8.26a1.43,1.43,0,0,1,1-1.38,2,2,0,0,1,1.68.25,1.39,1.39,0,0,1,.57,1.16V538a1.77,1.77,0,0,0,1.33,1.72,2.4,2.4,0,0,1,1.79,2.32v6.1a3.15,3.15,0,0,0,2.76,3.18,3.07,3.07,0,0,0,3.37-3.05q0-6.59,0-13.18c0-2,0-4,0-5.94,0-1-.52-5,.52-5.3a3.8,3.8,0,0,1,1.45-.13,1.24,1.24,0,0,1,.58.18c.7.49.32,1.89.34,2.6,0,2.2-.07,4.4-.07,6.6a2.72,2.72,0,0,0,2.48,2.77,2.62,2.62,0,0,0,2.76-2.62v-4.88a4.48,4.48,0,0,1,4.48-4.48h23.91a3.95,3.95,0,0,0,0-7.89Z"/><path class="cls-5" d="M930.5,548.33h0a1,1,0,0,1-1-1l.58-12.31,1.36,12.31A1,1,0,0,1,930.5,548.33Z"/><path class="cls-5" d="M926.68,537.72h0a.54.54,0,0,1-.54-.54l.32-6.81.76,6.81A.54.54,0,0,1,926.68,537.72Z"/><path class="cls-5" d="M918.38,533.44h0a.54.54,0,0,1-.54-.54l.32-6.81.76,6.81A.54.54,0,0,1,918.38,533.44Z"/><path class="cls-5" d="M904.95,525.53h0a.27.27,0,0,1-.27-.27l.16-3.41.38,3.41A.27.27,0,0,1,904.95,525.53Z"/><path class="cls-24" d="M1183.13,931.21l-46.75,0c-10.79,0-18.45-8.92-17.1-19.9l4.38-35.57c1.35-11,11.2-19.88,22-19.88l78.6,0c10.8,0,20.64-8.89,22-19.88l41.44-336.27"/><path class="cls-25" d="M1312.14,901.45s-154.75-.26-155.08-.3c-5.57-.68-11.66,11.65-13.6,27.53-1.35,11.05-.33,20.78,2.28,25.92.79,2.37,2.34,3.92,5.11,4l155.63-.16c4.9-.5,8.56-7,9.48-14.48l.84-29C1317.73,907.51,1319.47,901.46,1312.14,901.45Z"/><path class="cls-26" d="M1312.14,901.45l-83.84-.14a8.12,8.12,0,0,0-8.14,8.13h0a8.13,8.13,0,0,1-8.13,8.13h-66.4a77.39,77.39,0,0,0-2.17,11.13c-.31,2.57-.49,5.07-.56,7.46h76.58a22.32,22.32,0,0,1,18.91,10.45,24.94,24.94,0,0,0,21.07,11.86l47,0c4.9-.5,8.56-7,9.48-14.48l.84-29C1317.73,907.51,1319.47,901.46,1312.14,901.45Z"/><path class="cls-27" d="M1301.4,945.62l-144-.09c-7.33,0-12.52-6.05-11.6-13.51l-1.61,13c-.92,7.46,4.28,13.5,11.6,13.51l144,.09c7.33,0,14-6,14.93-13.49l1.61-13C1315.41,939.59,1308.73,945.63,1301.4,945.62Z"/><path class="cls-28" d="M1143.47,937.26c1.94-15.89,3.08-27.52,13.6-27.53l155.08.3c2.83,0,4.3.92,5,2.46.87-6.27,1.5-11-5-11,0,0-154.75-.26-155.08-.3-5.57-.68-11.66,11.65-13.6,27.53a73.76,73.76,0,0,0-.44,13.61C1143.12,940.65,1143.25,939,1143.47,937.26Z"/><path class="cls-25" d="M1275.53,615.51h-3.7c-8.14,0-13.92-6.73-12.9-15l13.43-109c1-8.29,8.45-15,16.6-15h3.7c8.14,0,13.92,6.73,12.9,15l-13.43,109C1291.1,608.8,1283.67,615.52,1275.53,615.51Z"/><g class="cls-29"><path class="cls-30" d="M1298.19,477.71l-13,105.8c-1,8.29-8.45,15-16.6,15h-3.7a13.47,13.47,0,0,1-5.53-1.16l-.39,3.16c-1,8.29,4.75,15,12.9,15h3.7c8.14,0,15.57-6.71,16.6-15l13.43-109C1306.32,485.32,1303.23,480,1298.19,477.71Z"/></g><ellipse class="cls-3" cx="1310.07" cy="929.92" rx="28.98" ry="10.16" transform="translate(228.2 2117.61) rotate(-83.04)"/><ellipse class="cls-19" cx="1310.37" cy="930.15" rx="9.42" ry="4.54" transform="translate(228.25 2118.12) rotate(-83.04)"/></g></g></g></svg>