<svg height="512" viewBox="0 0 128 128" width="512" xmlns="http://www.w3.org/2000/svg"><path d="m81.63 16.1v-9.1a6 6 0 0 1 6-6h-80.63a6 6 0 0 0 -6 6v9.1z" fill="#dcdcd2"/><path d="m6.541 1.023c.152-.011.304-.023.459-.023h-.459z" fill="#f0f0e6"/><path d="m93.63 1h-86.63a6 6 0 0 1 6 6c0 .155-.012.307-.023.459h.023v113.541a6 6 0 0 0 6 6h74.63a6 6 0 0 0 6-6v-114a6 6 0 0 0 -6-6z" fill="#fffffa"/><path d="m99.63 78.354a19.548 19.548 0 1 1 0-35.359v-5.886a24.982 24.982 0 1 0 0 47.13z" fill="#f0f0e6"/><path d="m21.86 16.904h67.527v7.377h-67.527z" fill="#ffe885"/><path d="m25 111.9v9.1a6 6 0 0 1 -6 6h80.63a6 6 0 0 0 6-6v-9.1z" fill="#f0f0e6"/><rect fill="#e678a0" height="12.185" rx="4" width="12.185" x="21.86" y="40.853"/><rect fill="#e678a0" height="12.185" rx="4" width="12.185" x="21.86" y="64.802"/><path d="m30.045 40.853h-4.185a4 4 0 0 0 -4 4v3.147a4 4 0 0 1 4-4h4.185a4 4 0 0 1 4 4v-3.147a4 4 0 0 0 -4-4z" fill="#fa8cb4"/><path d="m30.045 64.8h-4.185a4 4 0 0 0 -4 4v3.149a4 4 0 0 1 4-4h4.185a4 4 0 0 1 4 4v-3.149a4 4 0 0 0 -4-4z" fill="#fa8cb4"/><path d="m39.871 40.853h49.516v5.298h-49.516z" fill="#ffe885"/><path d="m39.871 64.802h49.516v5.298h-49.516z" fill="#ffe885"/><path d="m78.28 46.151a19.446 19.446 0 0 1 11.107-4.927v-.371h-13.255a25.116 25.116 0 0 0 -5.122 5.3z" fill="#f0dc78"/><path d="m68.195 70.1h6.014a19.406 19.406 0 0 1 -1.98-5.3h-5.534a24.789 24.789 0 0 0 1.5 5.3z" fill="#f0dc78"/><path d="m87.3 31.658a24.982 24.982 0 1 0 24.98 24.982 24.982 24.982 0 0 0 -24.98-24.982zm0 44.53a19.548 19.548 0 1 1 19.545-19.548 19.548 19.548 0 0 1 -19.545 19.548z" fill="#bee6ff"/><path d="m110.842 77.866a3.254 3.254 0 0 1 .975-.663l-4.991-4.991a25.117 25.117 0 0 1 -3.956 3.956l4.991 4.991a3.254 3.254 0 0 1 .663-.975z" fill="#8d7bd4"/><rect fill="#e678a0" height="21.493" rx="3.278" transform="matrix(.707 -.707 .707 .707 -26.902 108.303)" width="9.834" x="112.365" y="75.878"/><path d="m126 93.1a3.278 3.278 0 0 1 -4.636 0l-10.564-10.56a3.278 3.278 0 0 1 0-4.636l.019-.019-2.3 2.3a3.278 3.278 0 0 0 0 4.636l10.562 10.562a3.278 3.278 0 0 0 4.636 0l2.318-2.318z" fill="#d2648c"/><g fill="#785ae6"><path d="m13 17.1h-12a1 1 0 0 1 -1-1v-9.1a6.965 6.965 0 0 1 6.775-6.99c.092-.01.159-.01.225-.01a7.008 7.008 0 0 1 7 7c0 .106 0 .211-.011.316a.993.993 0 0 1 .011.143v8.641a1 1 0 0 1 -1 1zm-11-2h10v-7.427a1 1 0 0 1 -.021-.292c.01-.126.021-.252.021-.381a5.006 5.006 0 0 0 -5-5l-.14.008a4.979 4.979 0 0 0 -4.86 4.992z"/><path d="m19 128a7.008 7.008 0 0 1 -7-7v-113.341a.942.942 0 0 1 -.021-.277c.01-.127.021-.253.021-.382a5.006 5.006 0 0 0 -5-5 1 1 0 0 1 0-2h86.63a7.008 7.008 0 0 1 7 7v27.917a1 1 0 0 1 -1.494.869 23.982 23.982 0 1 0 0 41.708 1 1 0 0 1 1.494.869v33.537a1 1 0 0 1 -1 1h-13.477a1 1 0 0 1 0-2h12.477v-30.881a25.982 25.982 0 1 1 0-46.758v-26.261a5.006 5.006 0 0 0 -5-5h-81.735a6.979 6.979 0 0 1 2.105 5c0 .106 0 .211-.011.316a.993.993 0 0 1 .011.143v113.541a5 5 0 0 0 10 0v-9.1a1 1 0 0 1 1-1h50.784a1 1 0 0 1 0 2h-49.784v8.1a7.008 7.008 0 0 1 -7 7z"/><path d="m87.3 77.188a20.548 20.548 0 1 1 12.962-36.488 1 1 0 0 1 .368.775v30.325a1 1 0 0 1 -.368.775 20.59 20.59 0 0 1 -12.962 4.613zm0-39.1a18.548 18.548 0 1 0 11.33 33.229v-29.354a18.585 18.585 0 0 0 -11.33-3.871z"/><path d="m99.63 128h-80.63a1 1 0 0 1 0-2 5.006 5.006 0 0 0 5-5v-9.1a1 1 0 0 1 1-1h50.784a1 1 0 0 1 0 2h-49.784v8.1a6.979 6.979 0 0 1 -2.105 5h75.735a5.006 5.006 0 0 0 5-5v-8.1h-18.477a1 1 0 0 1 0-2h19.477a1 1 0 0 1 1 1v9.1a7.008 7.008 0 0 1 -7 7z"/><path d="m30.045 54.038h-4.185a1 1 0 1 1 0-2h4.185a3 3 0 0 0 3-3v-4.185a3 3 0 0 0 -3-3h-4.185a3 3 0 0 0 -3 3v4.185a1 1 0 0 1 -2 0v-4.185a5.006 5.006 0 0 1 5-5h4.185a5.006 5.006 0 0 1 5 5v4.185a5.006 5.006 0 0 1 -5 5z"/><path d="m30.045 77.987h-4.185a5.006 5.006 0 0 1 -5-5v-4.187a5.006 5.006 0 0 1 5-5h4.185a5.006 5.006 0 0 1 5 5v4.185a5.006 5.006 0 0 1 -5 5.002zm-4.185-12.187a3 3 0 0 0 -3 3v4.185a3 3 0 0 0 3 3h4.185a3 3 0 0 0 3-3v-4.185a3 3 0 0 0 -3-3z"/><path d="m64.624 47.151h-24.753a1 1 0 0 1 -1-1v-5.3a1 1 0 0 1 1-1h28.067a1 1 0 0 1 .774 1.632 24 24 0 0 0 -3.182 5.086 1 1 0 0 1 -.906.582zm-23.753-2h23.123a25.884 25.884 0 0 1 1.941-3.3h-25.064z"/><path d="m89.387 47.151h-18.567a1 1 0 0 1 -.843-1.538 20.551 20.551 0 0 1 5.236-5.568 1 1 0 0 1 .59-.192h13.584a1 1 0 0 1 1 1v5.3a1 1 0 0 1 -1 .998zm-16.629-2h15.629v-3.3h-12.252a18.581 18.581 0 0 0 -3.377 3.3z"/><path d="m89.387 71.1h-16.241a1 1 0 0 1 -.725-.311 20.514 20.514 0 0 1 -3.777-5.569 1 1 0 0 1 .908-1.418h19.835a1 1 0 0 1 1 1v5.3a1 1 0 0 1 -1 .998zm-15.8-2h14.8v-3.3h-17.2a18.488 18.488 0 0 0 2.395 3.3z"/><path d="m66.257 71.1h-26.386a1 1 0 0 1 -1-1v-5.3a1 1 0 0 1 1-1h23.816a1 1 0 0 1 .945.673 23.9 23.9 0 0 0 2.468 5.088 1 1 0 0 1 -.842 1.54zm-25.386-2h23.629a26 26 0 0 1 -1.517-3.3h-22.112z"/><path d="m28.328 32.658h-6.468a1 1 0 1 1 0-2h6.468a1 1 0 0 1 0 2z"/><path d="m87.3 32.658h-51.836a1 1 0 0 1 0-2h51.836a1 1 0 1 1 0 2z"/><path d="m89.387 89.467h-67.527a1 1 0 1 1 0-2h67.527a1 1 0 0 1 0 2z"/><path d="m89.388 96.843h-67.528a1 1 0 1 1 0-2h67.528a1 1 0 0 1 0 2z"/><path d="m89.387 104.22h-67.527a1 1 0 1 1 0-2h67.527a1 1 0 0 1 0 2z"/><path d="m89.388 53.655h-21.231a1 1 0 0 1 0-2h21.23a1 1 0 0 1 0 2z"/><path d="m62.635 53.655h-22.764a1 1 0 0 1 0-2h22.764a1 1 0 0 1 0 2z"/><path d="m47.621 77.222h-7.75a1 1 0 0 1 0-2h7.75a1 1 0 0 1 0 2z"/><path d="m71.791 77.222h-13.964a1 1 0 0 1 0-2h13.964a1 1 0 0 1 0 2z"/><path d="m87.3 82.623a25.982 25.982 0 1 1 25.98-25.983 26.012 26.012 0 0 1 -25.98 25.983zm0-49.965a23.982 23.982 0 1 0 23.98 23.982 24.01 24.01 0 0 0 -23.98-23.982zm0 44.53a20.548 20.548 0 1 1 20.546-20.548 20.571 20.571 0 0 1 -20.546 20.548zm0-39.1a18.548 18.548 0 1 0 18.546 18.552 18.569 18.569 0 0 0 -18.546-18.548z"/><path d="m107.861 82.16a1 1 0 0 1 -.707-.293l-4.991-4.991a1 1 0 0 1 .083-1.488 24.179 24.179 0 0 0 3.8-3.8 1 1 0 0 1 1.488-.083l4.991 4.991a1 1 0 0 1 -.3 1.619 2.262 2.262 0 0 0 -.679.458l-2.317 2.318a2.262 2.262 0 0 0 -.458.678 1 1 0 0 1 -.731.574.983.983 0 0 1 -.179.017zm-3.511-5.925 3.356 3.356c.036-.039.073-.078.111-.115l2.316-2.317c.037-.038.075-.074.114-.11l-3.356-3.356a26.188 26.188 0 0 1 -2.54 2.542z"/><path d="m121.4 97.34a4.265 4.265 0 0 1 -3.025-1.251l-10.558-10.562a4.283 4.283 0 0 1 0-6.05l2.317-2.318a4.283 4.283 0 0 1 6.05 0l10.563 10.563a4.283 4.283 0 0 1 0 6.05l-2.318 2.318a4.265 4.265 0 0 1 -3.029 1.25zm-8.24-19.432a2.272 2.272 0 0 0 -1.611.666l-2.317 2.318a2.28 2.28 0 0 0 0 3.222l10.562 10.562a2.282 2.282 0 0 0 3.222 0l2.318-2.318a2.282 2.282 0 0 0 0-3.222l-10.563-10.563a2.271 2.271 0 0 0 -1.611-.665z"/><path d="m89.388 25.281h-67.528a1 1 0 0 1 -1-1v-7.381a1 1 0 0 1 1-1h52.349a1 1 0 0 1 0 2h-51.349v5.377h65.528v-5.377h-6.4a1 1 0 0 1 0-2h7.4a1 1 0 0 1 1 1v7.377a1 1 0 0 1 -1 1.004z"/></g></svg>