<?xml version="1.0" encoding="utf-8"?>
<!-- Generator: Adobe Illustrator 21.1.0, SVG Export Plug-In . SVG Version: 6.00 Build 0)  -->
<svg version="1.1" id="Layer_1" xmlns="http://www.w3.org/2000/svg" xmlns:xlink="http://www.w3.org/1999/xlink" x="0px" y="0px"
	 viewBox="0 0 2040 1054.1" style="enable-background:new 0 0 2040 1054.1;" xml:space="preserve">
<style type="text/css">
	.st0{fill:rgba(255, 255, 255, 0.1);}
	.st1{fill:#F19E68;}
	.st2{fill:#FADFCD;}
</style>
<title>Asset 2</title>
<g id="Layer_1-2">
	<path class="st0" d="M2040,215.4v838.9H0V906.3c56.9,5,117.1-14.1,166.2-45.1c68.8-43.4,121.7-107.2,177.7-166.3
		c56-59,119.3-115.9,197.3-138.6c162.1-47.2,331.2,64.7,499.3,48.5c121-11.7,225.3-87.9,317.3-167.4s181.9-167.1,295.7-210
		C1775.8,181.2,1910.5,192.1,2040,215.4z"/>
	<path class="st1" d="M2040,317.2v737.2H0v-9.7c4.1-4.3,8.6-8.2,13.4-11.8c50.1-37.6,116.3-43.4,178.6-50s129.1-17.6,173.5-61.8
		c46.1-45.9,59.8-120.3,113.7-156.9c73.5-49.9,172.6-2,261-10.2c87.8-8.1,159.9-71.9,217.9-138.5c58-66.6,111.1-141,188-184.4
		c95.3-53.8,212-51,320.3-35.7s217.1,41.8,325.9,30.1C1883.7,415.8,1969.8,376.1,2040,317.2z"/>
	<path class="st2" d="M2040,564.4v490H385.8c16.5-14.6,32.2-30,47.1-45.4c71.9-74.2,146.8-158,248.6-175.3
		c95.7-16.2,191.5,31.3,288.5,27.9c94.5-3.3,180.7-54.5,254.1-114.1c73.4-59.5,139.2-129,218.9-179.9
		c79.7-50.8,179.1-81.7,269.3-53.3c63,19.8,116.6,66.9,182,76.5C1943.7,598,1993.4,582.6,2040,564.4z"/>
</g>
</svg>
