<?xml version="1.0" encoding="utf-8"?>
<!-- Generator: Adobe Illustrator 21.1.0, SVG Export Plug-In . SVG Version: 6.00 Build 0)  -->
<svg version="1.1" id="Layer_1" xmlns="http://www.w3.org/2000/svg" xmlns:xlink="http://www.w3.org/1999/xlink" x="0px" y="0px"
	 viewBox="0 0 2040 1054.1" style="enable-background:new 0 0 2040 1054.1;" xml:space="preserve">
<style type="text/css">
	.st0{fill:rgba(255, 255, 255, 0.1);}
	.st1{fill:#F19E68;}
	.st2{fill:#f8edeb;}
</style>
<title>Asset 2</title>
<g id="Layer_1-2">
	<path class="st0" d="M2040,215.4v838.9H0v-148c56.9,5,117.1-14.1,166.2-45.1C235,817.8,287.9,754,343.9,694.9
		c56-59,119.3-115.9,197.3-138.6c162.1-47.2,331.2,64.7,499.3,48.5c121-11.7,225.3-87.9,317.3-167.4s181.9-167.1,295.7-210
		C1775.8,181.2,1910.5,192.1,2040,215.4z"/>
	<path class="st1" d="M2040,317.2v737.2H26v-9.7c4-4.3,8.5-8.2,13.2-11.8c49.5-37.6,114.8-43.4,176.3-50s127.5-17.6,171.3-61.8
		c45.5-45.9,59-120.3,112.3-156.9c72.6-49.9,170.4-2,257.7-10.2c86.7-8.1,157.9-71.9,215.1-138.5c57.3-66.6,109.7-141,185.6-184.4
		c94.1-53.8,209.3-51,316.2-35.7c106.9,15.3,214.3,41.8,321.7,30.1C1885.7,415.8,1970.7,376.1,2040,317.2z"/>
	<path class="st2" d="M2040,564.4v490H0c20.3-14.6,39.7-30,58.1-45.4c88.7-74.2,181-158,306.6-175.3c118-16.2,236.2,31.3,355.8,27.9
		c116.5-3.3,222.8-54.5,313.4-114.1c90.5-59.5,171.7-129,270-179.9c98.3-50.8,220.9-81.7,332.1-53.3
		c77.7,19.8,143.8,66.9,224.4,76.5C1921.2,598,1982.5,582.6,2040,564.4z"/>
</g>
</svg>
